<mxfile host="app.diagrams.net" modified="2021-05-13T16:27:15.576Z" agent="5.0 (Windows NT 10.0; WOW64) AppleWebKit/537.36 (KHTML, like Gecko) Chrome/86.0.4240.198 Safari/537.36" etag="8Doz5az4Dx5HrlicNcu-" version="14.5.0" type="github">
  <diagram id="8lvCTjOtdvusVil_oy-N" name="Page-1">
    <mxGraphModel dx="1422" dy="734" grid="1" gridSize="10" guides="1" tooltips="1" connect="1" arrows="1" fold="1" page="1" pageScale="1" pageWidth="850" pageHeight="1100" math="0" shadow="0">
      <root>
        <mxCell id="0" />
        <mxCell id="1" parent="0" />
        <mxCell id="iPkUcIiX0NmyolPeF7yT-41" style="edgeStyle=orthogonalEdgeStyle;rounded=0;orthogonalLoop=1;jettySize=auto;html=1;entryX=0.917;entryY=0.5;entryDx=0;entryDy=0;entryPerimeter=0;endArrow=classic;endFill=1;" edge="1" parent="1" source="HF_NMyCPugI4MslvpjpV-7" target="iPkUcIiX0NmyolPeF7yT-40">
          <mxGeometry relative="1" as="geometry">
            <Array as="points">
              <mxPoint x="470" y="200" />
              <mxPoint x="470" y="200" />
            </Array>
          </mxGeometry>
        </mxCell>
        <mxCell id="HF_NMyCPugI4MslvpjpV-7" value="socket server" style="rounded=0;whiteSpace=wrap;html=1;fontFamily=Helvetica;" parent="1" vertex="1">
          <mxGeometry x="600" y="80" width="120" height="160" as="geometry" />
        </mxCell>
        <mxCell id="HF_NMyCPugI4MslvpjpV-27" style="edgeStyle=none;rounded=0;orthogonalLoop=1;jettySize=auto;html=1;entryX=0.5;entryY=1;entryDx=0;entryDy=0;fontFamily=Helvetica;" parent="1" source="HF_NMyCPugI4MslvpjpV-10" target="iPkUcIiX0NmyolPeF7yT-1" edge="1">
          <mxGeometry relative="1" as="geometry">
            <mxPoint x="18" y="192" as="targetPoint" />
          </mxGeometry>
        </mxCell>
        <mxCell id="HF_NMyCPugI4MslvpjpV-10" value="ota_process" style="ellipse;whiteSpace=wrap;html=1;fontFamily=Helvetica;" parent="1" vertex="1">
          <mxGeometry x="102" y="380" width="120" height="80" as="geometry" />
        </mxCell>
        <mxCell id="HF_NMyCPugI4MslvpjpV-17" value="TCP_CMD_OTA_CHECK" style="text;whiteSpace=wrap;html=1;fontFamily=Helvetica;" parent="1" vertex="1">
          <mxGeometry x="330" y="100" width="160" height="30" as="geometry" />
        </mxCell>
        <mxCell id="iPkUcIiX0NmyolPeF7yT-38" style="edgeStyle=orthogonalEdgeStyle;rounded=0;orthogonalLoop=1;jettySize=auto;html=1;entryX=1;entryY=0.5;entryDx=0;entryDy=0;endArrow=classic;endFill=1;" edge="1" parent="1" source="HF_NMyCPugI4MslvpjpV-21" target="HF_NMyCPugI4MslvpjpV-31">
          <mxGeometry relative="1" as="geometry">
            <Array as="points">
              <mxPoint x="570" y="425" />
              <mxPoint x="570" y="425" />
            </Array>
          </mxGeometry>
        </mxCell>
        <mxCell id="HF_NMyCPugI4MslvpjpV-21" value="http server" style="rounded=0;whiteSpace=wrap;html=1;fontFamily=Helvetica;" parent="1" vertex="1">
          <mxGeometry x="600" y="255" width="120" height="505" as="geometry" />
        </mxCell>
        <mxCell id="HF_NMyCPugI4MslvpjpV-26" value="callback" style="text;html=1;align=center;verticalAlign=middle;resizable=0;points=[];autosize=1;fontFamily=Helvetica;" parent="1" vertex="1">
          <mxGeometry x="500" y="395" width="60" height="20" as="geometry" />
        </mxCell>
        <mxCell id="HF_NMyCPugI4MslvpjpV-28" value="timeout" style="text;html=1;align=center;verticalAlign=middle;resizable=0;points=[];autosize=1;fontFamily=Helvetica;" parent="1" vertex="1">
          <mxGeometry x="110" y="500" width="50" height="20" as="geometry" />
        </mxCell>
        <mxCell id="iPkUcIiX0NmyolPeF7yT-39" style="edgeStyle=orthogonalEdgeStyle;rounded=0;orthogonalLoop=1;jettySize=auto;html=1;endArrow=classic;endFill=1;exitX=0.5;exitY=1;exitDx=0;exitDy=0;entryX=-0.033;entryY=0.137;entryDx=0;entryDy=0;entryPerimeter=0;" edge="1" parent="1" source="iPkUcIiX0NmyolPeF7yT-40" target="HF_NMyCPugI4MslvpjpV-21">
          <mxGeometry relative="1" as="geometry">
            <mxPoint x="222" y="360" as="sourcePoint" />
            <mxPoint x="300" y="360" as="targetPoint" />
            <Array as="points">
              <mxPoint x="410" y="324" />
            </Array>
          </mxGeometry>
        </mxCell>
        <mxCell id="iPkUcIiX0NmyolPeF7yT-23" style="edgeStyle=orthogonalEdgeStyle;rounded=0;orthogonalLoop=1;jettySize=auto;html=1;entryX=0.5;entryY=0;entryDx=0;entryDy=0;endArrow=classic;endFill=1;" edge="1" parent="1" source="HF_NMyCPugI4MslvpjpV-31" target="iPkUcIiX0NmyolPeF7yT-22">
          <mxGeometry relative="1" as="geometry" />
        </mxCell>
        <mxCell id="HF_NMyCPugI4MslvpjpV-31" value="ota_save" style="rounded=0;whiteSpace=wrap;html=1;fontFamily=Helvetica;" parent="1" vertex="1">
          <mxGeometry x="350" y="395" width="120" height="60" as="geometry" />
        </mxCell>
        <mxCell id="HF_NMyCPugI4MslvpjpV-38" value="send http download url" style="text;html=1;align=center;verticalAlign=middle;resizable=0;points=[];autosize=1;fontFamily=Helvetica;" parent="1" vertex="1">
          <mxGeometry x="425" y="290" width="140" height="20" as="geometry" />
        </mxCell>
        <mxCell id="iPkUcIiX0NmyolPeF7yT-1" value="&lt;span&gt;exit&lt;/span&gt;" style="rounded=0;whiteSpace=wrap;html=1;" vertex="1" parent="1">
          <mxGeometry x="102" y="700" width="120" height="60" as="geometry" />
        </mxCell>
        <mxCell id="iPkUcIiX0NmyolPeF7yT-9" value="ACK" style="text;html=1;align=center;verticalAlign=middle;resizable=0;points=[];autosize=1;" vertex="1" parent="1">
          <mxGeometry x="500" y="180" width="40" height="20" as="geometry" />
        </mxCell>
        <mxCell id="iPkUcIiX0NmyolPeF7yT-14" style="edgeStyle=orthogonalEdgeStyle;rounded=0;orthogonalLoop=1;jettySize=auto;html=1;entryX=0.017;entryY=0.313;entryDx=0;entryDy=0;entryPerimeter=0;endArrow=openAsync;endFill=0;" edge="1" parent="1" source="iPkUcIiX0NmyolPeF7yT-12" target="HF_NMyCPugI4MslvpjpV-7">
          <mxGeometry relative="1" as="geometry" />
        </mxCell>
        <mxCell id="iPkUcIiX0NmyolPeF7yT-17" style="edgeStyle=orthogonalEdgeStyle;rounded=0;orthogonalLoop=1;jettySize=auto;html=1;endArrow=classic;endFill=1;" edge="1" parent="1" source="iPkUcIiX0NmyolPeF7yT-12" target="HF_NMyCPugI4MslvpjpV-10">
          <mxGeometry relative="1" as="geometry">
            <mxPoint x="162" y="200" as="targetPoint" />
          </mxGeometry>
        </mxCell>
        <mxCell id="iPkUcIiX0NmyolPeF7yT-12" value="&#xa;&#xa;&lt;span style=&quot;color: rgb(0, 0, 0); font-family: helvetica; font-size: 12px; font-style: normal; font-weight: 400; letter-spacing: normal; text-align: center; text-indent: 0px; text-transform: none; word-spacing: 0px; background-color: rgb(248, 249, 250); display: inline; float: none;&quot;&gt;ota_check&lt;/span&gt;&#xa;&#xa;" style="rounded=0;whiteSpace=wrap;html=1;" vertex="1" parent="1">
          <mxGeometry x="102" y="100" width="120" height="60" as="geometry" />
        </mxCell>
        <mxCell id="iPkUcIiX0NmyolPeF7yT-32" style="edgeStyle=orthogonalEdgeStyle;rounded=0;orthogonalLoop=1;jettySize=auto;html=1;endArrow=classic;endFill=1;" edge="1" parent="1" source="iPkUcIiX0NmyolPeF7yT-22" target="iPkUcIiX0NmyolPeF7yT-30">
          <mxGeometry relative="1" as="geometry" />
        </mxCell>
        <mxCell id="iPkUcIiX0NmyolPeF7yT-22" value="ota_finish" style="rounded=0;whiteSpace=wrap;html=1;" vertex="1" parent="1">
          <mxGeometry x="350" y="500" width="120" height="60" as="geometry" />
        </mxCell>
        <mxCell id="iPkUcIiX0NmyolPeF7yT-25" value="failed" style="text;html=1;align=center;verticalAlign=middle;resizable=0;points=[];autosize=1;" vertex="1" parent="1">
          <mxGeometry x="260" y="610" width="40" height="20" as="geometry" />
        </mxCell>
        <mxCell id="iPkUcIiX0NmyolPeF7yT-26" value="reboot" style="rounded=0;whiteSpace=wrap;html=1;" vertex="1" parent="1">
          <mxGeometry x="350" y="700" width="120" height="60" as="geometry" />
        </mxCell>
        <mxCell id="iPkUcIiX0NmyolPeF7yT-31" style="edgeStyle=orthogonalEdgeStyle;rounded=0;orthogonalLoop=1;jettySize=auto;html=1;endArrow=classic;endFill=1;" edge="1" parent="1" source="iPkUcIiX0NmyolPeF7yT-30" target="iPkUcIiX0NmyolPeF7yT-26">
          <mxGeometry relative="1" as="geometry" />
        </mxCell>
        <mxCell id="iPkUcIiX0NmyolPeF7yT-34" style="edgeStyle=orthogonalEdgeStyle;rounded=0;orthogonalLoop=1;jettySize=auto;html=1;endArrow=classic;endFill=1;" edge="1" parent="1" source="iPkUcIiX0NmyolPeF7yT-30">
          <mxGeometry relative="1" as="geometry">
            <mxPoint x="160" y="630" as="targetPoint" />
          </mxGeometry>
        </mxCell>
        <mxCell id="iPkUcIiX0NmyolPeF7yT-30" value="check image&amp;nbsp;" style="rhombus;whiteSpace=wrap;html=1;" vertex="1" parent="1">
          <mxGeometry x="370" y="590" width="80" height="80" as="geometry" />
        </mxCell>
        <mxCell id="iPkUcIiX0NmyolPeF7yT-33" value="success" style="text;html=1;align=center;verticalAlign=middle;resizable=0;points=[];autosize=1;" vertex="1" parent="1">
          <mxGeometry x="410" y="670" width="60" height="20" as="geometry" />
        </mxCell>
        <mxCell id="iPkUcIiX0NmyolPeF7yT-40" value="ota_start" style="rounded=0;whiteSpace=wrap;html=1;fontFamily=Helvetica;" vertex="1" parent="1">
          <mxGeometry x="350" y="170" width="120" height="60" as="geometry" />
        </mxCell>
        <mxCell id="iPkUcIiX0NmyolPeF7yT-42" value="callback" style="text;html=1;align=center;verticalAlign=middle;resizable=0;points=[];autosize=1;" vertex="1" parent="1">
          <mxGeometry x="500" y="210" width="60" height="20" as="geometry" />
        </mxCell>
      </root>
    </mxGraphModel>
  </diagram>
</mxfile>
